<mxfile host="app.diagrams.net" modified="2023-12-28T20:06:36.267Z" agent="Mozilla/5.0 (Macintosh; Intel Mac OS X 10_15_7) AppleWebKit/537.36 (KHTML, like Gecko) Chrome/120.0.0.0 Safari/537.36" etag="P8wcbIk72WH9ZKL0Em0H" version="22.1.15" type="device">
  <diagram name="PÃ¡gina-1" id="IF9xjoC0RXxF2uC5i0r3">
    <mxGraphModel dx="1193" dy="693" grid="1" gridSize="10" guides="1" tooltips="1" connect="1" arrows="1" fold="1" page="1" pageScale="1" pageWidth="827" pageHeight="1169" math="0" shadow="0">
      <root>
        <mxCell id="0" />
        <mxCell id="1" parent="0" />
        <mxCell id="AlD2G5gYC2LHJNUKTNjU-5" style="edgeStyle=orthogonalEdgeStyle;rounded=0;orthogonalLoop=1;jettySize=auto;html=1;entryX=0;entryY=0.5;entryDx=0;entryDy=0;" edge="1" parent="1" source="AlD2G5gYC2LHJNUKTNjU-1" target="AlD2G5gYC2LHJNUKTNjU-2">
          <mxGeometry relative="1" as="geometry" />
        </mxCell>
        <mxCell id="AlD2G5gYC2LHJNUKTNjU-1" value="Developer" style="sketch=0;outlineConnect=0;fontColor=#232F3E;gradientColor=none;strokeColor=#232F3E;fillColor=#ffffff;dashed=0;verticalLabelPosition=bottom;verticalAlign=top;align=center;html=1;fontSize=12;fontStyle=0;aspect=fixed;shape=mxgraph.aws4.resourceIcon;resIcon=mxgraph.aws4.user;" vertex="1" parent="1">
          <mxGeometry x="250" y="310" width="90" height="90" as="geometry" />
        </mxCell>
        <mxCell id="AlD2G5gYC2LHJNUKTNjU-2" value="" style="shape=image;verticalLabelPosition=bottom;labelBackgroundColor=default;verticalAlign=top;aspect=fixed;imageAspect=0;image=https://upload.wikimedia.org/wikipedia/commons/8/87/Vagrant.png;" vertex="1" parent="1">
          <mxGeometry x="430" y="300" width="90.2" height="110" as="geometry" />
        </mxCell>
        <mxCell id="AlD2G5gYC2LHJNUKTNjU-3" value="build&lt;br&gt;build&lt;br&gt;build" style="shape=note;whiteSpace=wrap;html=1;backgroundOutline=1;darkOpacity=0.05;" vertex="1" parent="1">
          <mxGeometry x="600" y="315" width="60" height="80" as="geometry" />
        </mxCell>
        <mxCell id="AlD2G5gYC2LHJNUKTNjU-9" style="edgeStyle=orthogonalEdgeStyle;rounded=0;orthogonalLoop=1;jettySize=auto;html=1;exitX=0.5;exitY=1;exitDx=0;exitDy=0;entryX=0.5;entryY=0;entryDx=0;entryDy=0;" edge="1" parent="1" source="AlD2G5gYC2LHJNUKTNjU-4" target="AlD2G5gYC2LHJNUKTNjU-8">
          <mxGeometry relative="1" as="geometry" />
        </mxCell>
        <mxCell id="AlD2G5gYC2LHJNUKTNjU-4" value="Vagrantfile" style="text;html=1;strokeColor=none;fillColor=none;align=center;verticalAlign=middle;whiteSpace=wrap;rounded=0;" vertex="1" parent="1">
          <mxGeometry x="600" y="395" width="60" height="30" as="geometry" />
        </mxCell>
        <mxCell id="AlD2G5gYC2LHJNUKTNjU-6" style="edgeStyle=orthogonalEdgeStyle;rounded=0;orthogonalLoop=1;jettySize=auto;html=1;entryX=0;entryY=0.5;entryDx=0;entryDy=0;entryPerimeter=0;" edge="1" parent="1" source="AlD2G5gYC2LHJNUKTNjU-2" target="AlD2G5gYC2LHJNUKTNjU-3">
          <mxGeometry relative="1" as="geometry" />
        </mxCell>
        <mxCell id="AlD2G5gYC2LHJNUKTNjU-7" value="Virtual Machine" style="image;aspect=fixed;html=1;points=[];align=center;fontSize=12;image=img/lib/azure2/compute/Virtual_Machines_Classic.svg;" vertex="1" parent="1">
          <mxGeometry x="350" y="468" width="102.42" height="95" as="geometry" />
        </mxCell>
        <mxCell id="AlD2G5gYC2LHJNUKTNjU-8" value="VirtualBox" style="shape=image;verticalLabelPosition=bottom;labelBackgroundColor=default;verticalAlign=top;aspect=fixed;imageAspect=0;image=https://upload.wikimedia.org/wikipedia/commons/d/d5/Virtualbox_logo.png;" vertex="1" parent="1">
          <mxGeometry x="580" y="463" width="100" height="100" as="geometry" />
        </mxCell>
        <mxCell id="AlD2G5gYC2LHJNUKTNjU-10" style="edgeStyle=orthogonalEdgeStyle;rounded=0;orthogonalLoop=1;jettySize=auto;html=1;entryX=1.046;entryY=0.474;entryDx=0;entryDy=0;entryPerimeter=0;" edge="1" parent="1" source="AlD2G5gYC2LHJNUKTNjU-8" target="AlD2G5gYC2LHJNUKTNjU-7">
          <mxGeometry relative="1" as="geometry" />
        </mxCell>
        <mxCell id="AlD2G5gYC2LHJNUKTNjU-12" value="" style="shape=image;html=1;verticalAlign=top;verticalLabelPosition=bottom;labelBackgroundColor=#ffffff;imageAspect=0;aspect=fixed;image=https://cdn0.iconfinder.com/data/icons/long-shadow-web-icons/512/ruby-128.png" vertex="1" parent="1">
          <mxGeometry x="600" y="315" width="20" height="20" as="geometry" />
        </mxCell>
      </root>
    </mxGraphModel>
  </diagram>
</mxfile>
